# xmcd
#
# Track frame offsets:
#   150
#   15147
#   27828
#   41281
#   57967
#   75096
#   92319
#   106444
#   120279
#   137738
#   156894
#   172459
#   191145
#   208530
#   228527
#   252970
#   266807
#   291309
#
# Disc length: 4149 seconds
#
# Revision: 0
# Processed by: cddbd v1.5PL3 Copyright (c) Steve Scherf et al.
# Submitted via: Media_Universe 3.0
#
DISCID=eb103312
DTITLE=Faith Hill - Take Me As I Am
DYEAR=1900
DGENRE=Country
TTITLE0=Take Me As I Am
TTITLE1=Wild One
TTITLE2=Just About Now
TTITLE3=Piece Of My Heart
TTITLE4=I've Got This Friend
TTITLE5=But I Will
TTITLE6=Just Around The Eyes
TTITLE7=Go The Distance
TTITLE8=Daddy's Little Girl
TTITLE9=Since I Laid Eyes On You
TTITLE10=Ain't No Mountain High Enough
TTITLE11=One Heart At A Time
TTITLE12=The Hard Way
TTITLE13=Let Me Let Go
TTITLE14=It All Comes Down To Love
TTITLE15=When I Need You
TTITLE16=Never Gonna Be Your Lady
TTITLE17=
EXTD=
EXTT0=
EXTT1=
EXTT2=
EXTT3=
EXTT4=
EXTT5=
EXTT6=
EXTT7=
EXTT8=
EXTT9=
EXTT10=
EXTT11=
EXTT12=
EXTT13=
EXTT14=
EXTT15=
EXTT16=
EXTT17=
PLAYORDER=
